<svg width="1067" height="261" viewBox="0 0 1067 261" fill="none" xmlns="http://www.w3.org/2000/svg">
<path fill-rule="evenodd" clip-rule="evenodd" d="M0 186.312V186.253V74.7475V74.6879V63.6255C0 55.8293 6.38939 49.5 14.2589 49.5H59.2352C104.363 49.5 141 85.795 141 130.5C141 175.205 104.363 211.5 59.2352 211.5H14.2589C6.38939 211.5 0 205.17 0 197.374V186.312ZM41.1459 122.681C44.5134 125.947 47.2012 128.673 51.2232 132.504C62.4319 143.18 68.8048 163.041 52.1337 193.429C52.1337 193.429 52.8591 193.437 53.1527 193.437C82.0351 193.437 106.467 174.407 114.357 148.324C116.099 142.567 117.034 136.467 117.034 130.152C117.034 103.954 104.15 77.5219 78.0034 71.8407C41.4599 63.9004 17.1946 99.4523 41.1459 122.681Z" fill="#D6FC00"/>
<path d="M306.965 135.158C306.965 157.72 300.528 175.001 287.653 187.001C274.841 199 256.31 205 232.061 205H193.249V67.9416H236.279C258.654 67.9416 276.028 73.8476 288.403 85.6598C300.778 97.4719 306.965 113.971 306.965 135.158ZM276.778 135.908C276.778 106.472 263.779 91.7534 237.779 91.7534H222.311V181.001H234.78C262.779 181.001 276.778 165.97 276.778 135.908ZM355.901 152.408C355.901 162.783 357.588 170.626 360.963 175.938C364.401 181.251 369.963 183.907 377.65 183.907C385.275 183.907 390.744 181.282 394.056 176.032C397.431 170.72 399.118 162.845 399.118 152.408C399.118 142.033 397.431 134.252 394.056 129.065C390.681 123.877 385.15 121.284 377.463 121.284C369.838 121.284 364.338 123.877 360.963 129.065C357.588 134.19 355.901 141.971 355.901 152.408ZM428.367 152.408C428.367 169.47 423.868 182.813 414.868 192.438C405.868 202.063 393.337 206.875 377.275 206.875C367.213 206.875 358.338 204.688 350.651 200.313C342.964 195.875 337.058 189.532 332.933 181.282C328.808 173.032 326.746 163.407 326.746 152.408C326.746 135.283 331.214 121.971 340.151 112.472C349.089 102.972 361.651 98.2219 377.838 98.2219C387.9 98.2219 396.775 100.409 404.462 104.784C412.149 109.159 418.055 115.44 422.18 123.627C426.305 131.815 428.367 141.408 428.367 152.408ZM525.115 173.876C525.115 184.626 521.365 192.813 513.865 198.438C506.428 204.063 495.272 206.875 480.397 206.875C472.772 206.875 466.273 206.344 460.898 205.281C455.523 204.281 450.492 202.781 445.804 200.781V177.157C451.117 179.657 457.085 181.751 463.71 183.438C470.398 185.126 476.272 185.969 481.335 185.969C491.709 185.969 496.897 182.969 496.897 176.97C496.897 174.72 496.209 172.907 494.834 171.532C493.459 170.095 491.084 168.501 487.709 166.751C484.335 164.939 479.835 162.845 474.21 160.47C466.148 157.095 460.21 153.97 456.398 151.095C452.648 148.22 449.898 144.939 448.148 141.252C446.461 137.502 445.617 132.908 445.617 127.471C445.617 118.159 449.211 110.972 456.398 105.909C463.648 100.784 473.897 98.2219 487.147 98.2219C499.772 98.2219 512.053 100.972 523.99 106.472L515.365 127.096C510.115 124.846 505.209 123.002 500.647 121.565C496.084 120.128 491.428 119.409 486.678 119.409C478.241 119.409 474.022 121.69 474.022 126.252C474.022 128.815 475.366 131.033 478.054 132.908C480.803 134.783 486.772 137.565 495.959 141.252C504.147 144.564 510.146 147.658 513.959 150.533C517.771 153.408 520.584 156.72 522.396 160.47C524.208 164.22 525.115 168.689 525.115 173.876ZM570.207 152.408C570.207 162.783 571.894 170.626 575.269 175.938C578.707 181.251 584.269 183.907 591.956 183.907C599.581 183.907 605.05 181.282 608.362 176.032C611.737 170.72 613.425 162.845 613.425 152.408C613.425 142.033 611.737 134.252 608.362 129.065C604.987 123.877 599.456 121.284 591.769 121.284C584.144 121.284 578.644 123.877 575.269 129.065C571.894 134.19 570.207 141.971 570.207 152.408ZM642.674 152.408C642.674 169.47 638.174 182.813 629.174 192.438C620.174 202.063 607.643 206.875 591.581 206.875C581.519 206.875 572.644 204.688 564.957 200.313C557.27 195.875 551.364 189.532 547.239 181.282C543.114 173.032 541.052 163.407 541.052 152.408C541.052 135.283 545.52 121.971 554.458 112.472C563.395 102.972 575.957 98.2219 592.144 98.2219C602.206 98.2219 611.081 100.409 618.768 104.784C626.455 109.159 632.361 115.44 636.486 123.627C640.611 131.815 642.674 141.408 642.674 152.408ZM708.859 206.875C676.235 206.875 659.923 188.969 659.923 153.158C659.923 135.346 664.36 121.752 673.235 112.378C682.11 102.941 694.828 98.2219 711.39 98.2219C723.515 98.2219 734.39 100.597 744.014 105.347L735.577 127.471C731.077 125.659 726.89 124.19 723.015 123.065C719.14 121.877 715.265 121.284 711.39 121.284C696.516 121.284 689.078 131.846 689.078 152.97C689.078 173.47 696.516 183.719 711.39 183.719C716.89 183.719 721.984 183.001 726.671 181.563C731.358 180.063 736.046 177.751 740.733 174.626V199.094C736.108 202.031 731.421 204.063 726.671 205.187C721.984 206.312 716.046 206.875 708.859 206.875ZM792.575 148.002L805.044 132.065L834.387 100.191H866.636L825.012 145.658L869.167 205H836.168L805.981 162.533L793.7 172.376V205H765.107V59.1293H793.7V124.19L792.2 148.002H792.575ZM927.571 118.565C921.509 118.565 916.759 120.503 913.322 124.377C909.884 128.19 907.916 133.627 907.416 140.689H947.54C947.415 133.627 945.571 128.19 942.008 124.377C938.446 120.503 933.634 118.565 927.571 118.565ZM931.603 206.875C914.728 206.875 901.541 202.219 892.041 192.907C882.541 183.594 877.792 170.407 877.792 153.345C877.792 135.783 882.166 122.221 890.916 112.659C899.728 103.034 911.884 98.2219 927.384 98.2219C942.196 98.2219 953.727 102.441 961.977 110.878C970.226 119.315 974.351 130.971 974.351 145.846V159.72H906.76C907.072 167.845 909.478 174.188 913.978 178.751C918.478 183.313 924.79 185.594 932.915 185.594C939.227 185.594 945.196 184.938 950.821 183.626C956.446 182.313 962.32 180.219 968.445 177.345V199.469C963.445 201.969 958.102 203.813 952.414 205C946.727 206.25 939.79 206.875 931.603 206.875ZM1041.76 184.094C1046.76 184.094 1052.76 183.001 1059.75 180.813V202.094C1052.63 205.281 1043.88 206.875 1033.51 206.875C1022.07 206.875 1013.73 204 1008.48 198.25C1003.29 192.438 1000.69 183.751 1000.69 172.188V121.659H987.007V109.565L1002.76 100.003L1011.01 77.8788H1029.29V100.191H1058.63V121.659H1029.29V172.188C1029.29 176.251 1030.41 179.251 1032.66 181.188C1034.97 183.126 1038.01 184.094 1041.76 184.094Z" fill="#F7FDCD"/>
</svg>
